# xmcd
# 
# Track frame offsets:
#     150
#     12854
#     33869
#     45325
#     60791
#     79470
#     95128
#     109701
#     126030
#     137071
#     157032
#     176706
# 
# Disc length: 2575
# 
# Revision: 1
# Processed by: cddbd v1.5.2PL0 Copyright (c) Steve Scherf et al.
# Submitted via: fre:ac v1.0.31
# 
DISCID=940a0d0c
DTITLE=Evan O'Donnell - A Country Tribute
DYEAR=0
DGENRE=Country
TTITLE0=Mama Loves Papa
TTITLE1=That Summer
TTITLE2=Callin Baton Rouge
TTITLE3=Unanswered Prayers
TTITLE4=Cheyennne
TTITLE5=Friends In Low Places
TTITLE6=The Dance
TTITLE7=If Tomorrow Never Comes
TTITLE8=Two Of A Kind
TTITLE9=Wolves
TTITLE10=Lonesome Dove
TTITLE11=The River
EXTD=
EXTT0=
EXTT1=
EXTT2=
EXTT3=
EXTT4=
EXTT5=
EXTT6=
EXTT7=
EXTT8=
EXTT9=
EXTT10=
EXTT11=
PLAYORDER=
